<?xml version="1.0" encoding="UTF-8" standalone="no"?>
<!-- Created with Inkscape (http://www.inkscape.org/) -->

<svg
   xmlns:dc="http://purl.org/dc/elements/1.1/"
   xmlns:cc="http://creativecommons.org/ns#"
   xmlns:rdf="http://www.w3.org/1999/02/22-rdf-syntax-ns#"
   xmlns:svg="http://www.w3.org/2000/svg"
   xmlns="http://www.w3.org/2000/svg"
   xmlns:sodipodi="http://sodipodi.sourceforge.net/DTD/sodipodi-0.dtd"
   xmlns:inkscape="http://www.inkscape.org/namespaces/inkscape"
   version="1.1"
   width="159.84041"
   height="46.055"
   viewBox="-0.015 -0.015 3.4299088 0.98826355"
   id="svg2"
   inkscape:version="0.48.4 r9939"
   sodipodi:docname="bitcoincash.org-logo.svg">
  <sodipodi:namedview
     pagecolor="#ffffff"
     bordercolor="#666666"
     borderopacity="1"
     objecttolerance="10"
     gridtolerance="10"
     guidetolerance="10"
     inkscape:pageopacity="0"
     inkscape:pageshadow="2"
     inkscape:window-width="1343"
     inkscape:window-height="839"
     id="namedview21"
     showgrid="false"
     fit-margin-top="0"
     fit-margin-left="0"
     fit-margin-right="3"
     fit-margin-bottom="0"
     inkscape:zoom="4.9166667"
     inkscape:cx="78.972985"
     inkscape:cy="23.027498"
     inkscape:window-x="0"
     inkscape:window-y="0"
     inkscape:window-maximized="0"
     inkscape:current-layer="svg2" />
  <metadata
     id="metadata35">
    <rdf:RDF>
      <cc:Work
         rdf:about="">
        <dc:format>image/svg+xml</dc:format>
        <dc:type
           rdf:resource="http://purl.org/dc/dcmitype/StillImage" />
        <dc:title />
      </cc:Work>
    </rdf:RDF>
  </metadata>
  <defs
     id="defs4">
    <filter
       color-interpolation-filters="sRGB"
       id="coin-shadow">
      <feGaussianBlur
         id="feGaussianBlur7"
         stdDeviation="0.5"
         result="blur-out"
         in="SourceAlpha" />
      <feMerge
         id="feMerge9">
        <feMergeNode
           id="feMergeNode11" />
        <feMergeNode
           id="feMergeNode13"
           in="SourceGraphic" />
      </feMerge>
    </filter>
    <filter
       color-interpolation-filters="sRGB"
       id="symbol-shadow">
      <feGaussianBlur
         id="feGaussianBlur16"
         stdDeviation="1.3"
         result="blur-out"
         in="SourceAlpha" />
      <feMerge
         id="feMerge18">
        <feMergeNode
           id="feMergeNode20" />
        <feMergeNode
           id="feMergeNode22"
           in="SourceGraphic" />
      </feMerge>
    </filter>
    <linearGradient
       x1="0"
       y1="0"
       x2="0"
       y2="1"
       id="coin-gradient">
      <stop
         id="stop25"
         style="stop-color:#f9b949;stop-opacity:1"
         offset="0" />
      <stop
         id="stop27"
         style="stop-color:#f7931a;stop-opacity:1"
         offset="1" />
    </linearGradient>
  </defs>
  <g
     transform="matrix(0.015625,0,0,0.015625,-0.02087269,-0.02086823)"
     id="g29">
    <rect
       width="59.540295"
       height="59.540867"
       x="2.2298527"
       y="2.2295666"
       id="rect3765"
       style="fill:#1e4318;fill-opacity:1;stroke:#1e4318;stroke-width:3.70800042;stroke-linejoin:round;stroke-miterlimit:0;stroke-opacity:1;stroke-dasharray:none;stroke-dashoffset:0" />
    <path
       d="m 46.1009,27.441 c 0.637,-4.258 -2.605,-6.547 -7.038,-8.074 l 1.438,-5.768 -3.511,-0.875 -1.4,5.616 c -0.923,-0.23 -1.871,-0.447 -2.813,-0.662 l 1.41,-5.653 -3.509,-0.875 -1.439,5.766 c -0.764,-0.174 -1.514,-0.346 -2.242,-0.527 l 0.004,-0.018 -4.842,-1.209 -0.934,3.75 c 0,0 2.605,0.597 2.55,0.634 1.422,0.355 1.679,1.296 1.636,2.042 l -1.638,6.571 c 0.098,0.025 0.225,0.061 0.365,0.117 -0.117,-0.029 -0.242,-0.061 -0.371,-0.092 l -2.296,9.205 c -0.174,0.432 -0.615,1.08 -1.609,0.834 0.035,0.051 -2.552,-0.637 -2.552,-0.637 l -1.743,4.019 4.569,1.139 c 0.85,0.213 1.683,0.436 2.503,0.646 l -1.453,5.834 3.507,0.875 1.439,-5.772 c 0.958,0.26 1.888,0.5 2.798,0.726 l -1.434,5.745 3.511,0.875 1.453,-5.823 c 5.987,1.133 10.489,0.676 12.384,-4.739 1.527,-4.36 -0.076,-6.875 -3.226,-8.515 2.294,-0.529 4.022,-2.038 4.483,-5.155 z m -8.022,11.249 c -1.085,4.36 -8.426,2.003 -10.806,1.412 l 1.928,-7.729 c 2.38,0.594 10.012,1.77 8.878,6.317 z m 1.086,-11.312 c -0.99,3.966 -7.1,1.951 -9.082,1.457 l 1.748,-7.01 c 1.982,0.494 8.365,1.416 7.334,5.553 z"
       transform="matrix(0.8660254,-0.50000001,0.50000001,0.8660254,-11.534277,20.078917)"
       id="symbol"
       style="fill:#ffffff;filter:url(#symbol-shadow)"
       inkscape:connector-curvature="0" />
  </g>
  <text
     xml:space="preserve"
     style="font-size:0.42916667px;font-style:normal;font-variant:normal;font-weight:900;font-stretch:normal;text-align:center;line-height:125%;letter-spacing:0px;word-spacing:0px;writing-mode:lr-tb;text-anchor:middle;fill:#28170b;fill-opacity:1;stroke:none;font-family:Roboto Black;-inkscape-font-specification:'Roboto Black, Heavy'"
     x="2.288449"
     y="0.35308623"
     id="text2998"
     sodipodi:linespacing="125%"
     transform="scale(0.96020257,1.0414469)"><tspan
       sodipodi:role="line"
       id="tspan3000"
       x="2.288449"
       y="0.35308623">Bitcoin Cash</tspan><tspan
       sodipodi:role="line"
       x="2.288449"
       y="0.88954461"
       id="tspan3002">Wallet</tspan></text>
</svg>
